HIERARCHY
ROOT Pelvis
{
	OFFSET 0.000000 0.941512 0.000000
	CHANNELS 6 Xposition Yposition Zposition Zrotation Yrotation Xrotation 
	JOINT Pelvis_L_Hip
	{
		OFFSET 0.000000 0.000000 0.000000
		CHANNELS 3 Zrotation Yrotation Xrotation
		JOINT L_Hip
		{
			OFFSET 0.062321 -0.080322 -0.016990
			CHANNELS 3 Zrotation Yrotation Xrotation
			JOINT L_Knee
			{
				OFFSET 0.093051 -0.381305 -0.029784
				CHANNELS 3 Zrotation Yrotation Xrotation
				JOINT L_Ankle
				{
					OFFSET -0.010371 -0.431000 -0.033614
					CHANNELS 3 Zrotation Yrotation Xrotation
					End Site #name: L_Foot
					{
						OFFSET 0.069299 -0.038670 0.119418
					}
				}
			}
		}
	}
	JOINT Pelvis_R_Hip
	{
		OFFSET 0.000000 0.000000 0.000000
		CHANNELS 3 Zrotation Yrotation Xrotation
		JOINT R_Hip
		{
			OFFSET -0.055334 -0.094904 -0.002373
			CHANNELS 3 Zrotation Yrotation Xrotation
			JOINT R_Knee
			{
				OFFSET -0.064207 -0.384370 -0.019592
				CHANNELS 3 Zrotation Yrotation Xrotation
				JOINT R_Ankle
				{
					OFFSET 0.025418 -0.419734 -0.065953
					CHANNELS 3 Zrotation Yrotation Xrotation
					End Site #name: R_Foot
					{
						OFFSET -0.057233 -0.039888 0.132134
					}
				}
			}
		}
	}
	JOINT Pelvis_Spine1
	{
		OFFSET 0.000000 0.000000 0.000000
		CHANNELS 3 Zrotation Yrotation Xrotation
		JOINT Spine1
		{
			OFFSET -0.005562 0.124093 -0.043360
			CHANNELS 3 Zrotation Yrotation Xrotation
			JOINT Spine2
			{
				OFFSET 0.012244 0.139499 0.029894
				CHANNELS 3 Zrotation Yrotation Xrotation
				JOINT Spine3
				{
					OFFSET -0.002556 0.056561 0.009225
					CHANNELS 3 Zrotation Yrotation Xrotation
					JOINT Spine3_Neck
					{
						OFFSET 0.000000 0.000000 0.000000
						CHANNELS 3 Zrotation Yrotation Xrotation
						JOINT Neck
						{
							OFFSET -0.005205 0.217920 -0.024551
							CHANNELS 3 Zrotation Yrotation Xrotation
							End Site #name: Head
							{
								OFFSET 0.002365 0.091850 0.046637
							}
						}
					}
					JOINT Spine3_L_Collar
					{
						OFFSET 0.000000 0.000000 0.000000
						CHANNELS 3 Zrotation Yrotation Xrotation
						JOINT L_Collar
						{
							OFFSET 0.072225 0.116603 -0.009480
							CHANNELS 3 Zrotation Yrotation Xrotation
							JOINT L_Shoulder
							{
								OFFSET 0.115937 -0.058643 -0.021018
								CHANNELS 3 Zrotation Yrotation Xrotation
								JOINT L_Elbow
								{
									OFFSET 0.021994 -0.254722 -0.024492
									CHANNELS 3 Zrotation Yrotation Xrotation
									End Site #name: L_Wrist
									{
										OFFSET 0.048810 -0.240214 0.103329
									}
								}
							}
						}
					}
					JOINT Spine3_R_Collar
					{
						OFFSET 0.000000 0.000000 0.000000
						CHANNELS 3 Zrotation Yrotation Xrotation
						JOINT R_Collar
						{
							OFFSET -0.073372 0.120704 -0.024611
							CHANNELS 3 Zrotation Yrotation Xrotation
							JOINT R_Shoulder
							{
								OFFSET -0.108089 -0.054969 -0.020504
								CHANNELS 3 Zrotation Yrotation Xrotation
								JOINT R_Elbow
								{
									OFFSET -0.033684 -0.260739 0.009889
									CHANNELS 3 Zrotation Yrotation Xrotation
									End Site #name: R_Wrist
									{
										OFFSET -0.067980 -0.232763 0.118463
									}
								}
							}
						}
					}
				}
			}
		}
	}
}
MOTION
Frames: 14
Frame Time: 0.041667
0.000000 0.950199 0.000000 -0.369090 -7.567115 3.111313 0.000000 0.000000 0.000000 -6.902548 -1.228982 -5.792437 4.465009 -1.039256 11.754029 2.988270 2.114256 -4.535360 0.000000 0.000000 0.000000 1.605996 0.459211 -3.137829 -2.080216 0.375426 0.754012 2.489847 10.025938 -0.838526 0.000000 0.000000 0.000000 2.718460 -0.204735 -3.865544 -5.722783 1.378379 4.550913 5.389220 4.677159 1.087354 0.000000 0.000000 0.000000 -6.938669 5.986765 32.963808 0.000000 0.000000 0.000000 4.487226 -6.452475 -2.821224 -6.402054 0.000023 -4.573031 -4.365398 -2.138685 -0.982773 0.000000 0.000000 0.000000 -18.511772 17.403975 -9.057728 12.617003 -0.469563 3.945595 9.191464 3.123557 4.236420 
-0.001866 0.952432 0.003665 0.277887 -7.326575 3.468701 0.000000 0.000000 0.000000 -7.187480 -1.400383 -6.396313 3.515039 -0.926107 13.319737 4.173782 2.526534 -6.655975 0.000000 0.000000 0.000000 1.280523 0.372759 -2.592886 -2.457526 0.471083 1.157710 2.017328 10.219660 -1.804142 0.000000 0.000000 0.000000 1.160675 0.197664 -5.076215 -5.203966 1.438508 6.254754 5.106903 4.488997 0.308526 0.000000 0.000000 0.000000 -6.735054 5.799450 33.219316 0.000000 0.000000 0.000000 6.830268 -6.849859 -2.811623 -8.604910 0.274946 -3.635374 -3.801513 -2.279864 -2.577281 0.000000 0.000000 0.000000 -20.010481 18.065971 -9.582227 15.947369 -0.557213 4.357449 7.707724 3.111496 2.353539 
-0.002798 0.952899 0.005555 0.576637 -7.105009 3.686945 0.000000 0.000000 0.000000 -7.368989 -1.467907 -6.642540 3.323649 -0.894730 13.442301 4.372876 2.619431 -6.987546 0.000000 0.000000 0.000000 1.061738 0.389819 -2.641787 -2.343565 0.460978 1.251359 1.515615 9.788721 -2.521088 0.000000 0.000000 0.000000 0.579673 0.394218 -6.128959 -4.914728 1.557930 8.120157 4.903006 4.440265 -0.653035 0.000000 0.000000 0.000000 -6.558386 5.610754 33.504835 0.000000 0.000000 0.000000 6.998454 -6.992543 -2.880218 -8.659629 0.268361 -3.609345 -3.738916 -2.215494 -2.428935 0.000000 0.000000 0.000000 -19.764686 18.073823 -9.599366 16.134115 -0.544186 4.390692 7.541870 3.093573 2.174795 
-0.003143 0.952818 0.005930 0.585807 -7.100575 3.697795 0.000000 0.000000 0.000000 -7.368248 -1.466955 -6.639800 3.324486 -0.895005 13.443102 4.373226 2.619909 -6.987683 0.000000 0.000000 0.000000 1.062998 0.389118 -2.638154 -2.343385 0.461178 1.253965 1.517815 9.793443 -2.519458 0.000000 0.000000 0.000000 0.587029 0.392133 -6.119214 -4.910553 1.557499 8.125685 4.914628 4.454322 -0.647167 0.000000 0.000000 0.000000 -6.569905 5.618041 33.503891 0.000000 0.000000 0.000000 6.999125 -6.977338 -2.870691 -8.654780 0.267407 -3.612782 -3.718451 -2.205762 -2.429841 0.000000 0.000000 0.000000 -19.769779 18.086611 -9.611418 16.131974 -0.543021 4.381720 7.555767 3.095423 2.191902 
-0.005961 0.952844 0.007249 0.585264 -6.589568 3.744900 0.000000 0.000000 0.000000 -7.065218 -1.387023 -6.362315 3.350891 -0.888758 12.988764 4.223099 1.947474 -7.011908 0.000000 0.000000 0.000000 1.335811 0.309756 -2.244980 -2.356135 0.431993 0.882093 1.347868 9.438145 -2.669883 0.000000 0.000000 0.000000 0.493714 0.398994 -5.981646 -4.808067 1.546992 8.281496 4.981774 4.499957 -0.532486 0.000000 0.000000 0.000000 -6.620024 5.571897 33.570669 0.000000 0.000000 0.000000 7.099973 -7.144014 -2.944505 -8.428594 0.207041 -3.863148 -3.310618 -2.022438 -2.449163 0.000000 0.000000 0.000000 -19.806165 18.076278 -9.651880 16.261894 -0.556526 4.401790 7.365297 3.103549 1.910536 
-0.006154 0.952835 0.007431 0.586992 -6.589450 3.749657 0.000000 0.000000 0.000000 -7.066437 -1.386944 -6.362151 3.352479 -0.889240 12.989352 4.223086 1.947325 -7.012026 0.000000 0.000000 0.000000 1.336153 0.309700 -2.244808 -2.355979 0.431984 0.882275 1.348112 9.438762 -2.669745 0.000000 0.000000 0.000000 0.496173 0.398157 -5.977011 -4.806591 1.546928 8.284374 4.983981 4.500459 -0.530955 0.000000 0.000000 0.000000 -6.620937 5.573243 33.571294 0.000000 0.000000 0.000000 7.101883 -7.145156 -2.944905 -8.427103 0.206782 -3.863278 -3.305243 -2.020291 -2.451197 0.000000 0.000000 0.000000 -19.807837 18.077187 -9.652495 16.260154 -0.556244 4.398728 7.343853 3.093897 1.907996 
-0.012419 0.952819 0.006445 0.309048 -6.311000 4.249676 0.000000 0.000000 0.000000 -6.491303 -1.123782 -5.462737 3.918805 -0.889774 10.547406 3.680084 1.125173 -6.373283 0.000000 0.000000 0.000000 1.891856 0.375666 -2.739207 -2.139743 0.400422 0.915331 1.884931 9.316211 -1.604383 0.000000 0.000000 0.000000 0.741759 0.129678 -3.425626 -5.330262 1.347712 5.066821 5.280250 4.850663 1.072091 0.000000 0.000000 0.000000 -7.328633 6.065742 32.720383 0.000000 0.000000 0.000000 7.134219 -7.456556 -3.101149 -7.519890 0.037644 -4.655919 -2.182754 -1.428320 -2.132225 0.000000 0.000000 0.000000 -20.761821 18.421983 -10.017425 18.116852 -0.614045 4.428075 6.002877 2.779835 0.897722 
-0.016504 0.952572 0.009765 0.629200 -6.097601 5.197163 0.000000 0.000000 0.000000 -6.551236 -1.385508 -6.380773 3.743369 -0.865194 10.660954 3.880782 1.495813 -6.554456 0.000000 0.000000 0.000000 1.852458 0.587072 -3.900593 -2.124645 0.463707 1.693119 0.953467 8.778403 -3.097258 0.000000 0.000000 0.000000 0.168471 0.401635 -5.330718 -4.950034 1.536433 7.843644 5.027044 4.597158 -0.442836 0.000000 0.000000 0.000000 -6.925628 5.724469 33.257485 0.000000 0.000000 0.000000 7.142826 -7.508026 -3.141528 -7.211986 -0.009791 -4.749182 -2.479152 -1.431318 -1.558855 0.000000 0.000000 0.000000 -20.279599 18.115699 -9.741721 17.995235 -0.606583 4.544193 5.940672 2.585103 1.349652 
-0.021207 0.952703 0.012022 0.714451 -5.964754 5.571891 0.000000 0.000000 0.000000 -6.310454 -1.394385 -6.403741 3.846103 -0.877254 10.518754 3.918867 1.305976 -6.723711 0.000000 0.000000 0.000000 2.134998 0.578294 -3.904016 -2.002136 0.441859 1.676927 0.990895 8.765944 -3.022699 0.000000 0.000000 0.000000 0.107031 0.392478 -5.084845 -4.903156 1.549644 8.093761 4.957843 4.426027 -0.388008 0.000000 0.000000 0.000000 -6.856898 5.661839 33.105455 0.000000 0.000000 0.000000 7.284798 -7.660729 -3.220198 -7.027651 -0.037603 -4.881588 -2.249450 -1.302046 -1.445833 0.000000 0.000000 0.000000 -20.285079 17.773369 -9.457635 18.012489 -0.631531 4.626460 5.652375 2.431909 1.365661 
-0.029784 0.953077 0.011080 0.575066 -5.978728 6.767900 0.000000 0.000000 0.000000 -5.411169 -1.733634 -7.534003 3.556372 -0.826603 10.543215 4.378628 1.870586 -7.335195 0.000000 0.000000 0.000000 2.574287 0.954480 -5.965939 -1.441470 0.418396 2.572543 0.474110 7.676976 -3.465019 0.000000 0.000000 0.000000 -0.074814 0.378721 -4.512363 -4.846699 1.565427 8.392190 4.967846 4.356126 -0.909672 0.000000 0.000000 0.000000 -7.105028 5.821879 32.179810 0.000000 0.000000 0.000000 7.128447 -7.822568 -3.338444 -6.350527 -0.142538 -5.322339 -1.472935 -0.866993 -1.054989 0.000000 0.000000 0.000000 -19.890400 17.030410 -8.847800 17.967864 -0.588139 4.525972 4.984006 2.198200 1.065598 
-0.036302 0.951169 0.017587 0.723182 -5.681346 7.078860 0.000000 0.000000 0.000000 -5.027198 -1.900343 -8.108370 3.141411 -0.812994 11.951738 4.690033 1.927066 -7.892140 0.000000 0.000000 0.000000 2.755880 0.969779 -6.060468 -1.435952 0.475160 3.300073 -0.031909 7.742449 -4.494503 0.000000 0.000000 0.000000 0.253174 0.275744 -4.017180 -4.833972 1.475213 7.507789 4.838577 3.998826 0.164750 0.000000 0.000000 0.000000 -6.910242 5.672584 32.090479 0.000000 0.000000 0.000000 7.507038 -8.353539 -3.620539 -6.806290 -0.046144 -4.911170 -1.236559 -0.775885 -1.119490 0.000000 0.000000 0.000000 -20.696269 16.939598 -8.759127 18.677668 -0.737391 4.935221 4.821059 2.176980 0.883639 
-0.046409 0.949674 0.025779 0.687167 -5.755653 6.454326 0.000000 0.000000 0.000000 -3.769850 -2.541054 -10.389925 1.322162 -0.613630 19.032654 5.564259 2.721275 -9.192679 0.000000 0.000000 0.000000 3.042562 0.759215 -4.989034 -1.184634 0.516821 4.414248 -0.701441 8.227727 -6.035765 0.000000 0.000000 0.000000 0.814755 0.034596 -2.536761 -4.852181 1.473314 7.442550 4.704542 3.786584 0.315732 0.000000 0.000000 0.000000 -7.074605 5.920975 32.527814 0.000000 0.000000 0.000000 7.099653 -8.517506 -3.763046 -6.620148 0.086968 -3.948886 -0.056092 -0.286594 -1.286293 0.000000 0.000000 0.000000 -20.668840 16.824406 -8.637072 18.109797 -1.006108 5.846594 4.957785 2.299159 0.736225 
-0.055418 0.947245 0.035097 0.320842 -6.368861 6.183675 0.000000 0.000000 0.000000 -2.337888 -3.528186 -14.350933 -0.825916 0.040174 28.443612 6.339519 5.196566 -9.446567 0.000000 0.000000 0.000000 3.494941 0.617791 -4.328441 -0.630198 0.488099 5.419135 -1.467203 8.952327 -7.821029 0.000000 0.000000 0.000000 1.865345 -0.230778 -2.048092 -4.889321 1.542268 8.042157 4.552584 3.872770 0.120032 0.000000 0.000000 0.000000 -7.231378 6.208838 33.102465 0.000000 0.000000 0.000000 6.724688 -7.598053 -3.260485 -6.530670 0.133173 -3.606185 0.426054 -0.033102 -1.089120 0.000000 0.000000 0.000000 -20.690892 16.655671 -8.451361 17.185295 -1.151115 6.429955 5.521772 2.473918 1.061812 
-0.063174 0.945242 0.047169 -0.123736 -7.141393 5.492067 0.000000 0.000000 0.000000 -0.732821 -4.643236 -19.523872 -3.768405 1.754564 40.726176 6.707343 9.317797 -7.714158 0.000000 0.000000 0.000000 3.988552 0.274062 -2.684990 -0.273607 0.438109 5.657985 -2.080485 10.042084 -9.410017 0.000000 0.000000 0.000000 2.805040 -0.517079 -1.182519 -4.864214 1.569187 8.354639 4.675997 4.138933 0.261310 0.000000 0.000000 0.000000 -7.504427 6.571521 33.322253 0.000000 0.000000 0.000000 5.673794 -6.501270 -2.730187 -5.894803 0.169527 -3.064549 0.681036 0.112940 -0.919323 0.000000 0.000000 0.000000 -20.222553 16.606132 -8.381059 15.427634 -1.280576 7.045637 6.036832 2.592716 1.463078 
